<?xml version="1.0" encoding="UTF-8" standalone="no"?>
<!-- Created with Inkscape (http://www.inkscape.org/) -->

<svg
   xmlns:dc="http://purl.org/dc/elements/1.1/"
   xmlns:cc="http://creativecommons.org/ns#"
   xmlns:rdf="http://www.w3.org/1999/02/22-rdf-syntax-ns#"
   xmlns:svg="http://www.w3.org/2000/svg"
   xmlns="http://www.w3.org/2000/svg"
   xmlns:sodipodi="http://sodipodi.sourceforge.net/DTD/sodipodi-0.dtd"
   xmlns:inkscape="http://www.inkscape.org/namespaces/inkscape"
   width="104.04331mm"
   height="34.165009mm"
   viewBox="0 0 104.04331 34.165009"
   version="1.1"
   id="svg8"
   inkscape:version="0.92.4 (unknown)"
   sodipodi:docname="xzist.svg">
  <defs
     id="defs2" />
  <sodipodi:namedview
     id="base"
     pagecolor="#ffffff"
     bordercolor="#666666"
     borderopacity="1.0"
     inkscape:pageopacity="0.0"
     inkscape:pageshadow="2"
     inkscape:zoom="2.2828358"
     inkscape:cx="180.04739"
     inkscape:cy="76.753825"
     inkscape:document-units="mm"
     inkscape:current-layer="layer1"
     showgrid="false"
     inkscape:window-width="1366"
     inkscape:window-height="716"
     inkscape:window-x="0"
     inkscape:window-y="0"
     inkscape:window-maximized="1" />
  <metadata
     id="metadata5">
    <rdf:RDF>
      <cc:Work
         rdf:about="">
        <dc:format>image/svg+xml</dc:format>
        <dc:type
           rdf:resource="http://purl.org/dc/dcmitype/StillImage" />
        <dc:title></dc:title>
      </cc:Work>
    </rdf:RDF>
  </metadata>
  <g
     inkscape:label="Layer 1"
     inkscape:groupmode="layer"
     id="layer1"
     transform="translate(256.36639,-128.45018)">
    <rect
       style="opacity:1;fill:#ff0000;fill-opacity:1;fill-rule:nonzero;stroke:none;stroke-width:22.03732872;stroke-linecap:butt;stroke-linejoin:miter;stroke-miterlimit:4;stroke-dasharray:none;stroke-opacity:1;paint-order:markers stroke fill"
       id="rect819"
       width="31.587502"
       height="31.587502"
       x="-216.95999"
       y="128.45018" />
    <path
       inkscape:connector-curvature="0"
       id="path842"
       style="font-style:normal;font-variant:normal;font-weight:normal;font-stretch:normal;font-size:11.21577168px;line-height:1.25;font-family:Audiowide;-inkscape-font-specification:Audiowide;letter-spacing:0px;word-spacing:0px;fill:#ffffff;fill-opacity:1;stroke:none;stroke-width:0.28039429"
       d="m -208.77302,139.88948 -2.5575,2.79299 2.88062,3.12705 h -1.96057 l -1.89486,-2.06462 -1.89485,2.06462 h -1.96604 l 2.87513,-3.138 -2.54655,-2.78204 h 1.94962 l 1.57174,1.71413 1.5827,-1.71413 z" />
    <path
       inkscape:connector-curvature="0"
       id="path844"
       style="font-style:normal;font-variant:normal;font-weight:normal;font-stretch:normal;font-size:11.21577168px;line-height:1.25;font-family:Audiowide;-inkscape-font-specification:Audiowide;letter-spacing:0px;word-spacing:0px;fill:#ffffff;fill-opacity:1;stroke:none;stroke-width:0.28039429"
       d="m -202.13008,140.3276 q 0.0876,0.20263 0.0438,0.41073 -0.0383,0.20811 -0.1862,0.36145 l -3.29135,3.28587 h 3.42279 v 1.42387 h -5.13691 q -0.21906,0 -0.39979,-0.12048 -0.17524,-0.12596 -0.26286,-0.31763 -0.0822,-0.20263 -0.0438,-0.41074 0.0438,-0.21358 0.20263,-0.37239 l 3.27492,-3.27492 h -3.42278 v -1.42388 h 5.14786 q 0.21358,0 0.38883,0.11501 0.18072,0.115 0.26287,0.32311 z" />
    <path
       inkscape:connector-curvature="0"
       id="path846"
       style="font-style:normal;font-variant:normal;font-weight:normal;font-stretch:normal;font-size:11.21577168px;line-height:1.25;font-family:Audiowide;-inkscape-font-specification:Audiowide;letter-spacing:0px;word-spacing:0px;fill:#ffffff;fill-opacity:1;stroke:none;stroke-width:0.28039429"
       d="m -199.5452,138.67371 h -1.42387 v -1.28697 h 1.42387 z m 0,7.13581 h -1.42387 v -5.92004 h 1.42387 z" />
    <path
       inkscape:connector-curvature="0"
       id="path848"
       style="font-style:normal;font-variant:normal;font-weight:normal;font-stretch:normal;font-size:11.21577168px;line-height:1.25;font-family:Audiowide;-inkscape-font-specification:Audiowide;letter-spacing:0px;word-spacing:0px;fill:#ffffff;fill-opacity:1;stroke:none;stroke-width:0.28039429"
       d="m -192.46414,143.81062 q 0,0.36692 -0.0931,0.66265 -0.0931,0.29025 -0.24644,0.51479 -0.15334,0.21905 -0.35597,0.37787 -0.20263,0.15334 -0.42717,0.25192 -0.21905,0.0986 -0.44906,0.14786 -0.22454,0.0438 -0.42717,0.0438 h -3.85542 v -1.42387 h 3.84447 q 0.29025,0 0.43812,-0.14787 0.14786,-0.14786 0.14786,-0.42716 -0.0274,-0.56955 -0.57503,-0.56955 h -2.20701 q -0.47097,0 -0.79956,-0.16429 -0.32859,-0.1643 -0.53669,-0.41074 -0.20263,-0.24644 -0.29573,-0.53121 -0.0876,-0.28478 -0.0876,-0.53122 0,-0.47645 0.16977,-0.79956 0.16977,-0.32859 0.42716,-0.53122 0.25739,-0.20263 0.5586,-0.29025 0.3012,-0.0931 0.56407,-0.0931 h 3.49945 v 1.42388 h -3.48849 q -0.10953,0 -0.17525,0.0274 -0.0602,0.0219 -0.0931,0.0657 -0.0274,0.0383 -0.0329,0.0876 -0.005,0.0438 -0.005,0.0876 0.005,0.0876 0.0329,0.13692 0.0274,0.0493 0.0657,0.0712 0.0438,0.0219 0.0931,0.0274 0.0548,0 0.10405,0 h 2.20701 q 0.54765,0 0.931,0.19715 0.38335,0.19716 0.61884,0.49836 0.23549,0.29573 0.33954,0.64622 0.10953,0.3505 0.10953,0.6517 z" />
    <path
       inkscape:connector-curvature="0"
       id="path850"
       style="font-style:normal;font-variant:normal;font-weight:normal;font-stretch:normal;font-size:11.21577168px;line-height:1.25;font-family:Audiowide;-inkscape-font-specification:Audiowide;letter-spacing:0px;word-spacing:0px;fill:#ffffff;fill-opacity:1;stroke:none;stroke-width:0.28039429"
       d="m -186.16622,141.31336 h -2.48631 v 4.49616 h -1.44031 v -4.49616 h -1.85104 v -1.42388 h 1.85104 v -1.93319 h 1.44031 v 1.93319 h 2.48631 z" />
    <text
       id="text840"
       y="162.61519"
       x="-182.36142"
       style="font-style:normal;font-variant:normal;font-weight:normal;font-stretch:normal;font-size:11.21577168px;line-height:1.25;font-family:'Noto Sans';-inkscape-font-specification:'Noto Sans';letter-spacing:0px;word-spacing:0px;fill:#2b0000;fill-opacity:1;stroke:none;stroke-width:0.28039429"
       xml:space="preserve"><tspan
         style="font-style:normal;font-variant:normal;font-weight:normal;font-stretch:normal;font-family:Audiowide;-inkscape-font-specification:Audiowide;fill:#2b0000;stroke-width:0.28039429"
         y="162.61519"
         x="-182.36142"
         id="tspan838"
         sodipodi:role="line">xzist</tspan></text>
    <g
       id="g904">
      <rect
         inkscape:export-ydpi="337.72861"
         inkscape:export-xdpi="337.72861"
         style="opacity:1;fill:#ff0000;fill-opacity:1;fill-rule:nonzero;stroke:none;stroke-width:22.03732872;stroke-linecap:butt;stroke-linejoin:miter;stroke-miterlimit:4;stroke-dasharray:none;stroke-opacity:1;paint-order:markers stroke fill"
         id="rect858"
         width="31.587502"
         height="31.587502"
         x="-256.36639"
         y="129.02968" />
      <g
         transform="translate(-38.497315,0.579505)"
         id="g864">
        <path
           inkscape:connector-curvature="0"
           id="path860"
           d="m -201.16622,130.43034 -3.2706,3.2706 h 6.5412 z"
           style="opacity:1;fill:#ffffff;fill-opacity:1;fill-rule:nonzero;stroke:none;stroke-width:11.01866341;stroke-linecap:butt;stroke-linejoin:miter;stroke-miterlimit:4;stroke-dasharray:none;stroke-opacity:1;paint-order:markers stroke fill" />
        <path
           inkscape:connector-curvature="0"
           id="path862"
           d="m -204.43734,149.49481 3.27112,3.27112 3.27112,-3.27112 z"
           style="opacity:1;fill:#ffffff;fill-opacity:1;fill-rule:nonzero;stroke:none;stroke-width:11.01866341;stroke-linecap:butt;stroke-linejoin:miter;stroke-miterlimit:4;stroke-dasharray:none;stroke-opacity:1;paint-order:markers stroke fill" />
      </g>
      <path
         inkscape:connector-curvature="0"
         id="path866"
         style="font-style:normal;font-variant:normal;font-weight:normal;font-stretch:normal;font-size:11.21577168px;line-height:1.25;font-family:Audiowide;-inkscape-font-specification:Audiowide;letter-spacing:0px;word-spacing:0px;fill:#ffffff;fill-opacity:1;stroke:none;stroke-width:0.28039429"
         d="m -248.17942,140.46899 -2.5575,2.79299 2.88062,3.12705 h -1.96057 l -1.89486,-2.06462 -1.89485,2.06462 h -1.96604 l 2.87513,-3.138 -2.54655,-2.78204 h 1.94962 l 1.57174,1.71413 1.5827,-1.71413 z" />
      <path
         inkscape:connector-curvature="0"
         id="path868"
         style="font-style:normal;font-variant:normal;font-weight:normal;font-stretch:normal;font-size:11.21577168px;line-height:1.25;font-family:Audiowide;-inkscape-font-specification:Audiowide;letter-spacing:0px;word-spacing:0px;fill:#ffffff;fill-opacity:1;stroke:none;stroke-width:0.28039429"
         d="m -241.53648,140.90711 q 0.0876,0.20263 0.0438,0.41073 -0.0383,0.20811 -0.1862,0.36145 l -3.29135,3.28587 h 3.42279 v 1.42387 h -5.13691 q -0.21906,0 -0.39979,-0.12048 -0.17524,-0.12596 -0.26286,-0.31763 -0.0822,-0.20263 -0.0438,-0.41074 0.0438,-0.21358 0.20263,-0.37239 l 3.27492,-3.27492 h -3.42278 v -1.42388 h 5.14786 q 0.21358,0 0.38883,0.11501 0.18072,0.115 0.26287,0.32311 z" />
      <path
         inkscape:connector-curvature="0"
         id="path870"
         style="font-style:normal;font-variant:normal;font-weight:normal;font-stretch:normal;font-size:11.21577168px;line-height:1.25;font-family:Audiowide;-inkscape-font-specification:Audiowide;letter-spacing:0px;word-spacing:0px;fill:#ffffff;fill-opacity:1;stroke:none;stroke-width:0.28039429"
         d="m -238.9516,139.25322 h -1.42387 v -1.28697 h 1.42387 z m 0,7.13581 h -1.42387 v -5.92004 h 1.42387 z" />
      <path
         inkscape:connector-curvature="0"
         id="path872"
         style="font-style:normal;font-variant:normal;font-weight:normal;font-stretch:normal;font-size:11.21577168px;line-height:1.25;font-family:Audiowide;-inkscape-font-specification:Audiowide;letter-spacing:0px;word-spacing:0px;fill:#ffffff;fill-opacity:1;stroke:none;stroke-width:0.28039429"
         d="m -231.87054,144.39013 q 0,0.36692 -0.0931,0.66265 -0.0931,0.29025 -0.24644,0.51479 -0.15334,0.21905 -0.35597,0.37787 -0.20263,0.15334 -0.42717,0.25192 -0.21905,0.0986 -0.44906,0.14786 -0.22454,0.0438 -0.42717,0.0438 h -3.85542 v -1.42387 h 3.84447 q 0.29025,0 0.43812,-0.14787 0.14786,-0.14786 0.14786,-0.42716 -0.0274,-0.56955 -0.57503,-0.56955 h -2.20701 q -0.47097,0 -0.79956,-0.16429 -0.32859,-0.1643 -0.53669,-0.41074 -0.20263,-0.24644 -0.29573,-0.53121 -0.0876,-0.28478 -0.0876,-0.53122 0,-0.47645 0.16977,-0.79956 0.16977,-0.32859 0.42716,-0.53122 0.25739,-0.20263 0.5586,-0.29025 0.3012,-0.0931 0.56407,-0.0931 h 3.49945 v 1.42388 h -3.48849 q -0.10953,0 -0.17525,0.0274 -0.0602,0.0219 -0.0931,0.0657 -0.0274,0.0383 -0.0329,0.0876 -0.005,0.0438 -0.005,0.0876 0.005,0.0876 0.0329,0.13692 0.0274,0.0493 0.0657,0.0712 0.0438,0.0219 0.0931,0.0274 0.0548,0 0.10405,0 h 2.20701 q 0.54765,0 0.931,0.19715 0.38335,0.19716 0.61884,0.49836 0.23549,0.29573 0.33954,0.64622 0.10953,0.3505 0.10953,0.6517 z" />
      <path
         inkscape:connector-curvature="0"
         id="path874"
         style="font-style:normal;font-variant:normal;font-weight:normal;font-stretch:normal;font-size:11.21577168px;line-height:1.25;font-family:Audiowide;-inkscape-font-specification:Audiowide;letter-spacing:0px;word-spacing:0px;fill:#ffffff;fill-opacity:1;stroke:none;stroke-width:0.28039429"
         d="m -225.57262,141.89287 h -2.48631 v 4.49616 h -1.44031 v -4.49616 h -1.85104 v -1.42388 h 1.85104 v -1.93319 h 1.44031 v 1.93319 h 2.48631 z" />
    </g>
  </g>
</svg>
